<svg xmlns="http://www.w3.org/2000/svg" xmlns:xlink="http://www.w3.org/1999/xlink" width="410" height="260" viewBox="0 0 410 260">
  <metadata><?xpacket begin="﻿" id="W5M0MpCehiHzreSzNTczkc9d"?>
<x:xmpmeta xmlns:x="adobe:ns:meta/" x:xmptk="Adobe XMP Core 5.6-c138 79.159824, 2016/09/14-01:09:01        ">
   <rdf:RDF xmlns:rdf="http://www.w3.org/1999/02/22-rdf-syntax-ns#">
      <rdf:Description rdf:about=""/>
   </rdf:RDF>
</x:xmpmeta>
                                                                                                    
                                                                                                    
                                                                                                    
                                                                                                    
                                                                                                    
                                                                                                    
                                                                                                    
                                                                                                    
                                                                                                    
                                                                                                    
                                                                                                    
                                                                                                    
                                                                                                    
                                                                                                    
                                                                                                    
                                                                                                    
                                                                                                    
                                                                                                    
                                                                                                    
                                                                                                    
                           
<?xpacket end="w"?></metadata>
<defs>
    <style>
      .cls-1, .cls-2, .cls-3 {
        fill-rule: evenodd;
      }

      .cls-1 {
        filter: url(#filter);
      }

      .cls-2 {
        filter: url(#filter-2);
      }
    </style>
    <filter id="filter" x="-6" y="-1" width="424" height="189" filterUnits="userSpaceOnUse">
      <feOffset result="offset" dy="3" in="SourceAlpha"/>
      <feGaussianBlur result="blur" stdDeviation="2.646"/>
      <feFlood result="flood" flood-opacity="0.35"/>
      <feComposite result="composite" operator="in" in2="blur"/>
      <feBlend result="blend" in="SourceGraphic"/>
    </filter>
    <filter id="filter-2" x="233" y="193" width="185" height="59" filterUnits="userSpaceOnUse">
      <feOffset result="offset" dy="3" in="SourceAlpha"/>
      <feGaussianBlur result="blur" stdDeviation="2.646"/>
      <feFlood result="flood" flood-opacity="0.35"/>
      <feComposite result="composite" operator="in" in2="blur"/>
      <feBlend result="blend" in="SourceGraphic"/>
    </filter>
  </defs>
  <path id="CFR" class="cls-1" d="M35.82,112.638a53.641,53.641,0,0,0,11.75,18.25A54.856,54.856,0,0,0,66.2,143.138a64.834,64.834,0,0,0,24.75,4.5,59.012,59.012,0,0,0,12.25-1.125,56.153,56.153,0,0,0,9-2.625,31.6,31.6,0,0,0,7.5-3.75l3.5,6a50.178,50.178,0,0,1-8.5,4,80.544,80.544,0,0,1-10.25,2.75,66.267,66.267,0,0,1-13.5,1.25,72.021,72.021,0,0,1-25.5-4.5,62.835,62.835,0,0,1-21-12.875A59.7,59.7,0,0,1,30.32,116.638a65.609,65.609,0,0,1-5.125-26.5A63.139,63.139,0,0,1,44.82,43.514a62.349,62.349,0,0,1,20.5-12.875,66.932,66.932,0,0,1,24.375-4.5,72.241,72.241,0,0,1,12.75,1,96.208,96.208,0,0,1,9.75,2.25q4.5,1.5,8.5,3.25l-3.5,6a33.017,33.017,0,0,0-7.25-3,52.676,52.676,0,0,0-8.625-2.125A69.71,69.71,0,0,0,89.7,32.639a61.571,61.571,0,0,0-24,4.5,54.131,54.131,0,0,0-18.25,12.25A54.686,54.686,0,0,0,35.82,67.639,63.425,63.425,0,0,0,35.82,112.638ZM6.945,125.763A81.125,81.125,0,0,0,25.7,153.388a84.849,84.849,0,0,0,28.5,17.875,99.064,99.064,0,0,0,36,6.375,100.256,100.256,0,0,0,25.75-3,135.646,135.646,0,0,0,19.25-6.5,74.255,74.255,0,0,0,16-9.75l-26.25-46.25a38.543,38.543,0,0,1-8.75,6.5,52.177,52.177,0,0,1-10.5,4.5,46.646,46.646,0,0,1-14.25,2,38.669,38.669,0,0,1-14.75-2.75,37.237,37.237,0,0,1-11.75-7.5,34.968,34.968,0,0,1-7.875-11.125A32.724,32.724,0,0,1,54.2,90.139a33.987,33.987,0,0,1,2.75-13.625A34.372,34.372,0,0,1,64.57,65.388,36.1,36.1,0,0,1,90.2,55.139a43.954,43.954,0,0,1,13.375,1.875A84.5,84.5,0,0,1,113.7,60.889a89.274,89.274,0,0,1,8.75,5.75l26.25-46.25a89.856,89.856,0,0,0-16-8.75,120.453,120.453,0,0,0-19.125-6.25A106.214,106.214,0,0,0,88.2,2.639a94.3,94.3,0,0,0-34,6.125,82.836,82.836,0,0,0-28,17.625,84.186,84.186,0,0,0-19,27.625q-7,16.125-7,36.125A91.376,91.376,0,0,0,6.945,125.763Zm150.5,47.625h53.249v-63h44.25v-41.5h-44.25v-18.5h45V6.639H157.445V173.388Zm25-20V26.639h56.5v6h-50v54h47.5v6h-47.5v60.75h-6.5Zm118.5-38v38h-6.5V26.639h27a78.574,78.574,0,0,1,21.75,2.875,52.094,52.094,0,0,1,17.375,8.5,40.712,40.712,0,0,1,11.625,13.875,41.5,41.5,0,0,1,4.25,19.25q0,15.75-8,25.625t-21.5,14.625l25,42h-7.75l-23.75-40a89.487,89.487,0,0,1-19,2h-20.5Zm20.5-6q22.746,0,35.625-9.875t12.875-28.375q0-18.5-12.875-28.5t-35.625-10h-20.5v76.749h20.5Zm-52,64h53.25v-42.25l25,42.25h62.5l-31.25-55a54.064,54.064,0,0,0,11.25-11,65.135,65.135,0,0,0,7.75-14.5q3.5-8.748,3.5-21.25,0-15.75-5.625-27.875a57.312,57.312,0,0,0-15.625-20.375,68.967,68.967,0,0,0-23.625-12.5,99.106,99.106,0,0,0-29.625-4.25h-57.5V173.388Zm53.25-121.749h2.75q9.5,0,16.125,4.25t6.625,14.25q0,10-6.625,14.25t-16.125,4.25h-2.75v-37Z"/>
  <path id="Ninja" class="cls-2" d="M239.849,241.333h13.933V224.267l12.2,17.066h11.734V196.867H263.782V214l-12.266-17.133H239.849v44.466Zm6.2-5.333V202.2h1.733l22,30.8V202.2h1.734V236h-1.734l-22-30.8V236h-1.733Zm36.332,5.333h15.067V196.867H282.381v44.466ZM289.048,236V202.2h1.733V236h-1.733Zm13.066,5.333h13.933V224.267l12.2,17.066H339.98V196.867H326.047V214L313.78,196.867H302.114v44.466Zm6.2-5.333V202.2h1.733l22,30.8V202.2h1.733V236h-1.733l-22-30.8V236h-1.733Zm34,5.333h11.2q6.2,0,9.033-2.533t2.833-8.733v-33.2h-14.6V227.6a3.235,3.235,0,0,1-.733,2.267,3.88,3.88,0,0,1-2.867.8h-4.866v10.666ZM347.646,236v-1.6h5.4q2.666,0,3.4-1.033a5.363,5.363,0,0,0,.733-3.1V202.2h1.734v28.067a6.223,6.223,0,0,1-1.3,4.3q-1.3,1.434-4.567,1.433h-5.4Zm18.6,5.333h14l1.467-4h13.466l1.467,4h14l-16.867-44.466H383.113Zm19.2-13.8,3-7.8,3,7.8h-6ZM374.313,236l12.866-33.8h2.534L402.579,236h-1.867l-1.266-3.333h-22L376.179,236h-1.866Zm3.733-4.933h20.8l-10.4-27.267Z"/>
  <path id="Train" class="cls-3" d="M193.88,190.207c1.509,0,2.725-.935,2.725-2.095s-1.216-2.1-2.725-2.1-2.726.935-2.726,2.1S192.37,190.207,193.88,190.207ZM212.12,186c1.506,0,2.726.938,2.726,2.1s-1.22,2.095-2.726,2.095-2.725-.938-2.725-2.095S210.615,186,212.12,186ZM180,209.826v18.942a0.087,0.087,0,0,1,.042.048c3.732,1.467,42.184,1.467,45.916,0a0.087,0.087,0,0,0,.042-0.048V209.826l-1.363-1.112V196.156H226v-1.5c-3.795-2.886-11.364-4.53-19.436-4.9a1.115,1.115,0,0,0,.545-0.919A1.466,1.466,0,0,0,205.5,187.6h-4.948a1.464,1.464,0,0,0-1.614,1.241,1.115,1.115,0,0,0,.545.919c-8.072.371-15.662,2-19.436,4.9v1.5h1.363v12.558Zm24.405-10.752a1.916,1.916,0,0,1,2.117-1.628h13.5a1.916,1.916,0,0,1,2.117,1.628v6.77a1.916,1.916,0,0,1-2.117,1.629h-13.5a1.916,1.916,0,0,1-2.117-1.629v-6.77Zm3.354,16.007c0,2.015-2.138,3.66-4.759,3.66s-4.759-1.645-4.759-3.66,2.138-3.659,4.759-3.659S207.759,213.066,207.759,215.081Zm-23.922-16.007a1.916,1.916,0,0,1,2.117-1.628h13.5a1.916,1.916,0,0,1,2.117,1.628v6.77a1.916,1.916,0,0,1-2.117,1.629h-13.5a1.916,1.916,0,0,1-2.117-1.629v-6.77Zm35.58,32.192c-4.361.242-10.19,0.387-16.417,0.387h-0.042c-6.248,0-12.077-.129-16.417-0.387a50.314,50.314,0,0,1-6.541-.661v1.306l3.187,10.865c1.782,0.935,4.885,1.629,8.68,2.112h0.482l2.076-6.271a3.569,3.569,0,0,1,3.5-2.095h10.148a3.566,3.566,0,0,1,3.5,2.095l2.076,6.271h0.482a28.86,28.86,0,0,0,8.68-2.112L226,231.911v-1.306A50.783,50.783,0,0,1,219.417,231.266ZM195.033,247h15.934a0.69,0.69,0,0,0,.8-0.79l-2.369-7.174a1.332,1.332,0,0,0-1.321-.789H197.926a1.332,1.332,0,0,0-1.321.789l-2.369,7.174A0.7,0.7,0,0,0,195.033,247Z"/>
</svg>
