<?xml version="1.0" ?><!DOCTYPE svg  PUBLIC '-//W3C//DTD SVG 1.1//EN'  'http://www.w3.org/Graphics/SVG/1.1/DTD/svg11.dtd'><svg height="512px" id="Layer_1" style="enable-background:new 0 0 512 512;" version="1.1" viewBox="0 0 512 512" width="512px" xml:space="preserve" xmlns="http://www.w3.org/2000/svg" xmlns:xlink="http://www.w3.org/1999/xlink"><g><path d="M212.5,92.9c7.2,0,13-5.8,13-13s-5.8-13-13-13c-7.2,0-13,5.8-13,13S205.3,92.9,212.5,92.9z"/><circle cx="299.5" cy="79.8" r="13"/><path d="M146.3,214.6v117.5c0.1,0.1,0.2,0.2,0.2,0.3c17.8,9.1,201.2,9.1,219,0c0.1-0.1,0.2-0.2,0.2-0.3V214.6l-6.5-6.9v-77.9h6.5   v-9.3c-18.1-17.9-54.2-28.1-92.7-30.4c1.6-1.4,2.6-3.4,2.6-5.7c0-4.3-3.5-7.7-7.7-7.7h-23.6c-4.3,0-7.7,3.5-7.7,7.7   c0,2.3,1,4.3,2.6,5.7c-38.5,2.3-74.7,12.4-92.7,30.4v9.3h6.5v77.9L146.3,214.6z M262.7,147.9c0-5.6,4.5-10.1,10.1-10.1h64.4   c5.6,0,10.1,4.5,10.1,10.1v42c0,5.6-4.5,10.1-10.1,10.1h-64.4c-5.6,0-10.1-4.5-10.1-10.1V147.9z M278.7,247.2   c0,12.5-10.2,22.7-22.7,22.7c-12.5,0-22.7-10.2-22.7-22.7c0-12.5,10.2-22.7,22.7-22.7C268.5,224.5,278.7,234.7,278.7,247.2z    M164.6,147.9c0-5.6,4.5-10.1,10.1-10.1h64.4c5.6,0,10.1,4.5,10.1,10.1v42c0,5.6-4.5,10.1-10.1,10.1h-64.4   c-5.6,0-10.1-4.5-10.1-10.1V147.9z"/><path d="M334.3,347.6c-20.8,1.5-48.6,2.4-78.3,2.4c-0.1,0-0.1,0-0.2,0c-29.8,0-57.6-0.8-78.3-2.4c-15.7-1.2-25.3-2.5-31.2-4.1v8.1   l15.2,67.4c8.5,5.8,23.3,10.1,41.4,13.1h2.3l9.9-38.9c1.9-7.6,8.8-13,16.7-13h48.4c7.9,0,14.7,5.3,16.7,13l9.9,38.9h2.3   c18.1-3,33-7.4,41.4-13.1l15.2-67.4v-8.1C359.8,345.1,350.1,346.4,334.3,347.6z"/><path d="M218,445.2H294c2.6,0,4.4-2.4,3.8-4.9l-11.3-44.5c-0.7-2.9-3.3-4.9-6.3-4.9h-48.4c-3,0-5.6,2-6.3,4.9l-11.3,44.5   C213.6,442.8,215.5,445.2,218,445.2z"/></g></svg>