<?xml version="1.0" encoding="utf-8"?>
<!-- Generator: Adobe Illustrator 21.0.0, SVG Export Plug-In . SVG Version: 6.00 Build 0)  -->
<svg version="1.1" id="Layer_1" xmlns="http://www.w3.org/2000/svg" xmlns:xlink="http://www.w3.org/1999/xlink" x="0px" y="0px"
	 viewBox="0 0 410 260" style="enable-background:new 0 0 410 260;" xml:space="preserve">
<path d="M357.1,99.5c8.6-6.6,12.9-16,12.9-28.4c0-12.3-4.3-21.8-12.9-28.5s-20.5-10-35.6-10h-20.5v76.7h20.5v0
	C336.6,109.4,348.5,106.1,357.1,99.5z M322.7,51.6h2.8c6.3,0,11.7,1.4,16.1,4.2c4.4,2.8,6.6,7.6,6.6,14.2c0,6.7-2.2,11.4-6.6,14.2
	c-4.4,2.8-9.8,4.2-16.1,4.2h-2.8V51.6z"/>
<path d="M294.4,111V26.6h27c7.3-0.1,14.7,0.9,21.8,2.9c6.3,1.7,12.2,4.6,17.4,8.5c4.9,3.7,8.8,8.4,11.6,13.9
	c2.9,6,4.4,12.6,4.2,19.2c0,10.5-2.7,19-8,25.6c-5.1,6.3-12,11.1-20.5,14.2h39.2c1.1-1.2,2.1-2.4,3-3.6c3.2-4.5,5.8-9.4,7.8-14.5
	c2.3-5.8,3.5-12.9,3.5-21.2c0-10.5-1.9-19.8-5.6-27.9c-3.6-7.9-8.9-14.9-15.6-20.4c-7-5.7-15-9.9-23.6-12.5C347,8,337,6.5,326.9,6.6
	h-57.5V111H294.4z"/>
<polygon points="182.4,111 182.4,26.6 238.9,26.6 238.9,32.6 188.9,32.6 188.9,86.6 236.4,86.6 236.4,92.6 188.9,92.6 188.9,111 
	210.7,111 210.7,110.4 254.9,110.4 254.9,68.9 210.7,68.9 210.7,50.4 255.7,50.4 255.7,6.6 157.4,6.6 157.4,111 "/>
<polygon points="188.9,128 188.9,153.4 182.4,153.4 182.4,128 157.4,128 157.4,173.4 210.7,173.4 210.7,128 "/>
<path d="M28.3,111c-2.1-6.7-3.2-13.8-3.1-20.9C25,72.5,32.1,55.6,44.8,43.5c5.9-5.6,12.9-10,20.5-12.9c7.8-3,16-4.5,24.4-4.5
	c4.3,0,8.5,0.3,12.8,1c3.3,0.6,6.5,1.3,9.8,2.2c3,1,5.8,2.1,8.5,3.2l-3.5,6c-2.3-1.3-4.7-2.3-7.2-3c-2.8-0.9-5.7-1.7-8.6-2.1
	c-3.8-0.6-7.7-0.9-11.6-0.9c-8.2-0.1-16.4,1.4-24,4.5c-6.9,2.8-13.1,7-18.2,12.2c-5.1,5.2-9,11.5-11.6,18.2
	c-5.3,14-5.5,29.3-0.6,43.4h26.2c-1.7-2.2-3.2-4.7-4.3-7.2c-1.9-4.3-2.9-8.9-2.9-13.6c0-4.7,0.9-9.3,2.8-13.6
	c1.8-4.2,4.4-8,7.6-11.1c6.8-6.7,16.1-10.4,25.6-10.2c4.5-0.1,9,0.6,13.4,1.9c3.5,1.1,6.8,2.4,10.1,3.9c3,1.7,5.9,3.7,8.8,5.8
	l26.2-46.2c-5-3.5-10.4-6.4-16-8.8c-6.2-2.6-12.6-4.7-19.1-6.2c-8.3-1.9-16.8-2.9-25.4-2.8c-11.6-0.1-23.1,2-34,6.1
	c-10.4,3.9-19.9,9.9-28,17.6c-8.1,7.8-14.6,17.2-19,27.6c-4.7,10.8-7,22.8-7,36.1c-0.1,7,0.6,14,2.1,20.9H28.3z"/>
<polygon points="384.4,128 356.8,128 371.9,153.4 364.2,153.4 349.1,128 300.9,128 300.9,153.4 294.4,153.4 294.4,128 269.4,128 
	269.4,173.4 322.7,173.4 322.7,131.1 347.7,173.4 410.2,173.4 "/>
<path d="M45,128c0.8,1,1.7,2,2.6,2.9c5.3,5.3,11.6,9.5,18.6,12.2c7.9,3.1,16.3,4.6,24.8,4.5c4.1,0.1,8.2-0.3,12.2-1.1
	c3.1-0.6,6.1-1.5,9-2.6c2.7-0.9,5.2-2.2,7.5-3.8l3.5,6c-2.7,1.6-5.5,2.9-8.5,4c-3.4,1.1-6.8,2.1-10.2,2.8c-4.4,0.9-9,1.3-13.5,1.2
	c-8.7,0.1-17.3-1.5-25.5-4.5c-7.8-2.9-14.9-7.2-21-12.9c-2.9-2.7-5.4-5.6-7.7-8.8H7.9c4.2,9.5,10.3,18.1,17.8,25.4
	c8.2,7.8,17.9,13.9,28.5,17.9c11.5,4.3,23.7,6.5,36,6.4c8.7,0.1,17.3-0.9,25.8-3c6.6-1.7,13-3.9,19.2-6.5c5.7-2.6,11.1-5.8,16-9.8
	L134,128H45z"/>
<path id="Ninja" d="M239.8,241.3h13.9v-17.1l12.2,17.1h11.7v-44.5h-13.9V214l-12.3-17.1h-11.7V241.3L239.8,241.3z M246,236v-33.8
	h1.7l22,30.8v-30.8h1.7V236h-1.7l-22-30.8V236H246L246,236z M282.4,241.3h15.1v-44.5h-15.1L282.4,241.3L282.4,241.3z M289,236v-33.8
	h1.7V236H289z M302.1,241.3H316v-17.1l12.2,17.1H340v-44.5H326V214l-12.3-17.1h-11.7V241.3z M308.3,236v-33.8h1.7l22,30.8v-30.8h1.7
	V236H332l-22-30.8V236H308.3z M342.3,241.3h11.2c4.1,0,7.1-0.8,9-2.5c1.9-1.7,2.8-4.6,2.8-8.7v-33.2h-14.6v30.7
	c0.1,0.8-0.2,1.6-0.7,2.3c-0.8,0.6-1.8,0.9-2.9,0.8h-4.9V241.3z M347.6,236v-1.6h5.4c1.8,0,2.9-0.3,3.4-1c0.6-0.9,0.8-2,0.7-3.1
	v-28.1h1.7v28.1c0.1,1.5-0.3,3.1-1.3,4.3c-0.9,1-2.4,1.4-4.6,1.4H347.6L347.6,236z M366.2,241.3h14l1.5-4h13.5l1.5,4h14l-16.9-44.5
	h-10.7L366.2,241.3z M385.4,227.5l3-7.8l3,7.8H385.4z M374.3,236l12.9-33.8h2.5l12.9,33.8h-1.9l-1.3-3.3h-22l-1.3,3.3H374.3z
	 M378,231.1h20.8l-10.4-27.3L378,231.1z"/>
<path id="Train" d="M203.6,185.1c1.3,0,2.3-1.1,2.3-2.5s-1-2.5-2.3-2.5s-2.3,1.1-2.3,2.5C201.4,184,202.4,185.1,203.6,185.1z
	 M218.9,180c1.3,0,2.3,1.1,2.3,2.5c0,1.4-1,2.5-2.3,2.5c-1.3,0-2.3-1.1-2.3-2.5C216.7,181.1,217.7,180,218.9,180z M192,208.9v23
	c0,0,0,0,0,0.1c3.1,1.8,35.4,1.8,38.5,0c0,0,0,0,0-0.1v-23l-1.1-1.3v-15.2h1.1v-1.8c-3.2-3.5-9.5-5.5-16.3-5.9
	c0.3-0.2,0.4-0.7,0.5-1.1c-0.1-0.9-0.7-1.6-1.3-1.5h-4.2c-0.7-0.1-1.3,0.6-1.4,1.5c0,0.5,0.2,0.9,0.5,1.1
	c-6.8,0.4-13.1,2.4-16.3,5.9v1.8h1.1v15.2L192,208.9z M212.5,195.9c0.1-1.2,0.9-2.1,1.8-2h11.3c0.9-0.1,1.7,0.7,1.8,2v8.2
	c-0.1,1.2-0.9,2.1-1.8,2h-11.3c-0.9,0.1-1.7-0.7-1.8-2V195.9z M215.3,215.3c0,2.4-1.8,4.4-4,4.4s-4-2-4-4.4c0-2.4,1.8-4.4,4-4.4
	S215.3,212.8,215.3,215.3L215.3,215.3z M195.2,195.9c0.1-1.2,0.9-2.1,1.8-2h11.3c0.9-0.1,1.7,0.7,1.8,2v8.2c-0.1,1.2-0.9,2.1-1.8,2
	H197c-0.9,0.1-1.7-0.7-1.8-2V195.9z M225.1,234.9c-3.7,0.3-8.5,0.5-13.8,0.5h0c-5.2,0-10.1-0.2-13.8-0.5c-1.8-0.1-3.7-0.4-5.5-0.8
	v1.6l2.7,13.2c1.5,1.1,4.1,2,7.3,2.6h0.4l1.7-7.6c0.5-1.7,1.7-2.7,2.9-2.5h8.5c1.3-0.1,2.4,0.9,2.9,2.5l1.7,7.6h0.4
	c2.5-0.3,5-1.2,7.3-2.6l2.7-13.2v-1.6C228.8,234.5,226.9,234.8,225.1,234.9z M204.6,254H218c0.3,0.1,0.6-0.2,0.7-0.7
	c0-0.1,0-0.2,0-0.3l-2-8.7c-0.2-0.6-0.6-1-1.1-1H207c-0.5-0.1-0.9,0.3-1.1,1l-2,8.7c0,0.5,0.2,0.9,0.5,1
	C204.5,254,204.6,254,204.6,254z"/>
</svg>
